<?xml version="1.0" standalone="no"?>
<!DOCTYPE svg PUBLIC "-//W3C//DTD SVG 20010904//EN"
 "http://www.w3.org/TR/2001/REC-SVG-20010904/DTD/svg10.dtd">
<svg version="1.0" xmlns="http://www.w3.org/2000/svg"
 width="1280.000000pt" height="853.000000pt" viewBox="0 0 1280.000000 853.000000"
 preserveAspectRatio="xMidYMid meet" transform="scale(-1, 1)" >
<metadata>
Created by potrace 1.15, written by Peter Selinger 2001-2017
</metadata>
<g transform="translate(0.000000,853.000000) scale(0.100000,-0.100000)"
fill="#000000" stroke="none">
<path d="M7230 7845 c-74 -13 -172 -29 -218 -34 -67 -8 -89 -16 -120 -39 -20
-16 -50 -33 -67 -37 -48 -11 -252 -111 -318 -156 -104 -71 -146 -111 -184
-178 -30 -53 -37 -76 -39 -125 -1 -42 -10 -79 -29 -119 -25 -54 -26 -62 -15
-101 9 -32 9 -53 1 -82 -13 -48 -14 -134 -1 -154 6 -10 8 7 4 50 -4 45 -2 76
8 100 l14 35 17 -49 c9 -27 17 -63 17 -78 0 -18 4 -27 10 -23 6 4 8 16 4 28
-3 12 -4 19 0 16 4 -4 11 -21 16 -38 7 -26 5 -36 -11 -52 -13 -13 -15 -19 -5
-19 7 0 21 10 29 23 15 21 16 16 16 -71 1 -93 1 -93 -38 -145 -39 -52 -63 -95
-81 -142 -13 -34 25 -78 88 -101 68 -25 72 -30 65 -79 -4 -35 -2 -46 16 -64
11 -11 21 -33 21 -47 0 -14 5 -34 10 -44 7 -13 7 -27 -1 -44 -10 -22 -8 -30
20 -64 28 -36 31 -47 31 -106 0 -95 18 -132 70 -146 23 -6 67 -10 98 -9 61 3
72 -6 49 -43 -8 -13 -20 -41 -27 -63 -20 -61 -37 -82 -101 -120 -102 -63 -142
-135 -120 -221 16 -63 14 -70 -19 -84 -17 -7 -40 -24 -51 -39 -17 -22 -20 -34
-14 -79 4 -36 3 -58 -5 -68 -7 -7 -8 -14 -3 -14 6 0 15 10 21 23 l12 22 -3
-25 c-2 -23 -6 -25 -52 -25 -69 0 -122 -30 -165 -93 -43 -63 -38 -74 -76 192
-26 188 -28 194 -55 210 -31 19 -33 25 -54 196 -20 164 -19 223 5 295 52 159
91 298 91 323 0 15 -2 84 -4 154 -4 118 -6 130 -30 165 -14 21 -29 58 -33 83
-7 52 -28 90 -49 90 -24 0 -17 20 10 30 34 13 45 47 45 136 0 66 -3 78 -24 99
-13 13 -40 27 -60 30 -31 6 -36 11 -36 34 0 18 -11 35 -34 53 -30 24 -43 27
-112 28 -167 2 -339 -47 -386 -110 -28 -38 -35 -123 -14 -156 17 -25 17 -27
-6 -51 -21 -23 -27 -25 -88 -18 -54 5 -69 11 -91 34 l-26 29 -224 1 c-123 0
-259 3 -301 7 -66 6 -79 4 -84 -10 -3 -9 -11 -13 -18 -9 -32 22 -577 32 -848
16 l-98 -5 -12 -42 c-14 -47 -18 -595 -5 -658 8 -38 8 -38 56 -38 29 0 53 -6
60 -14 9 -10 22 -11 60 -3 32 6 125 6 256 1 114 -5 237 -6 273 -2 208 22 241
22 263 2 19 -17 36 -19 188 -16 91 2 184 5 207 8 l41 6 0 -60 c0 -73 0 -73
-149 -71 -170 2 -265 -30 -238 -80 10 -19 8 -21 -24 -21 -22 0 -36 -6 -40 -16
-10 -26 -7 -34 14 -34 11 0 20 -4 20 -10 0 -5 -14 -10 -30 -10 -48 0 -98 -26
-120 -62 -24 -39 -25 -54 -5 -92 8 -15 15 -41 15 -57 0 -22 5 -29 19 -29 10 0
24 7 31 15 26 31 32 -1 20 -96 -17 -130 -34 -183 -70 -227 -53 -64 -126 -238
-133 -320 -7 -67 -6 -71 18 -91 15 -11 31 -22 38 -24 8 -3 -3 -32 -32 -87 -39
-73 -42 -84 -27 -92 9 -5 16 -14 16 -20 0 -6 -100 -226 -221 -487 -122 -262
-326 -705 -454 -986 -225 -493 -593 -1286 -600 -1294 -2 -2 -18 1 -34 7 -26 9
-32 8 -40 -6 -4 -9 -6 -22 -4 -29 5 -12 -100 -228 -124 -255 -9 -10 -13 -24
-10 -32 4 -9 2 -18 -4 -22 -6 -3 -8 -12 -5 -19 2 -7 -18 -59 -45 -115 -27 -55
-49 -106 -49 -112 0 -6 -8 -20 -17 -30 -16 -18 -16 -20 10 -41 l26 -22 -36
-64 c-25 -43 -45 -66 -64 -73 -34 -12 -42 -30 -23 -57 29 -41 63 -50 145 -40
41 5 75 13 77 17 1 4 22 41 46 82 24 41 77 136 117 210 40 74 82 147 94 161
11 14 43 73 70 132 27 58 56 109 64 113 9 3 59 12 111 19 78 10 104 18 140 43
42 28 81 37 530 121 348 65 505 90 555 89 39 0 99 2 133 7 l64 7 -4 -181 c-4
-210 -18 -186 122 -196 81 -7 86 -8 105 -38 29 -46 121 -106 291 -190 232
-117 338 -145 570 -154 123 -5 324 7 389 23 18 4 24 -4 44 -68 13 -40 34 -94
47 -120 14 -27 36 -84 50 -128 15 -48 32 -84 43 -89 33 -18 146 -24 200 -11
48 11 51 14 51 43 0 22 -10 42 -34 67 -19 19 -44 59 -55 88 l-21 52 25 -5 c14
-3 37 -8 52 -11 15 -3 57 -29 93 -59 123 -100 223 -153 360 -191 51 -15 101
-18 235 -18 183 0 253 8 470 56 149 33 215 37 382 24 115 -10 307 12 378 44
43 19 98 68 160 143 38 46 41 48 70 37 16 -6 90 -27 165 -47 124 -34 145 -36
260 -35 171 2 401 27 478 53 82 27 196 104 263 177 56 61 137 179 158 230 8
18 19 32 25 32 7 0 26 15 44 33 52 54 57 98 56 502 -1 386 -14 575 -56 770
-16 73 -22 138 -23 240 -1 133 -2 143 -29 195 -16 30 -47 82 -71 115 -41 59
-42 63 -59 197 -33 264 -105 501 -202 665 -32 54 -115 172 -183 263 -68 91
-150 203 -182 249 -55 78 -58 86 -52 127 4 31 2 44 -6 44 -7 0 -11 -6 -10 -12
3 -28 -1 -61 -8 -54 -4 3 -6 24 -5 45 2 22 -1 42 -6 45 -5 3 -6 -8 -4 -25 2
-16 2 -29 -2 -29 -3 0 -33 41 -66 90 -55 82 -59 92 -45 106 25 26 46 72 35 79
-6 3 -10 16 -10 29 0 12 -7 31 -15 42 -22 29 -18 40 8 18 20 -17 20 -17 -2 8
-13 15 -27 25 -32 23 -4 -3 -9 -2 -11 2 -6 14 -84 63 -100 63 -9 0 -26 8 -38
18 l-22 18 22 37 c14 23 19 44 15 57 -11 34 -84 114 -127 138 -46 25 -133 31
-141 10 -7 -20 -41 5 -46 33 -3 24 -3 24 15 4 11 -11 16 -16 12 -11 -5 6 -8
32 -8 58 0 55 -27 92 -77 104 -45 11 -54 22 -47 65 14 87 -47 172 -151 210
-74 27 -88 38 -136 115 -37 58 -88 107 -139 134 -14 7 -27 14 -28 16 -2 1 16
29 39 61 64 85 225 357 251 422 32 79 32 277 0 402 -12 48 -22 110 -22 139 0
76 -22 114 -131 222 -117 115 -184 164 -355 259 -111 62 -148 76 -264 106
-185 47 -290 51 -470 18z m-955 -827 c3 -7 -1 -4 -9 6 -9 11 -16 29 -15 40 1
17 2 16 9 -6 4 -14 11 -32 15 -40z m81 10 c3 -24 1 -29 -6 -18 -11 16 -14 67
-4 57 4 -3 8 -21 10 -39z m-1005 -1016 c11 -26 30 -74 41 -107 11 -33 47 -108
79 -166 56 -101 60 -111 65 -190 3 -46 10 -96 14 -111 6 -17 5 -30 -1 -34 -6
-4 -6 -11 1 -19 8 -10 7 -21 -4 -42 -18 -35 -38 -144 -35 -187 2 -17 -2 -40
-8 -51 -8 -15 -7 -30 4 -60 20 -49 20 -47 5 -395 -13 -324 -32 -590 -42 -590
-3 0 -14 21 -22 48 -9 26 -44 126 -77 222 -40 115 -58 177 -51 184 17 17 11
50 -25 155 -19 55 -35 114 -35 131 0 79 -55 140 -126 140 -42 0 -43 1 -50 38
-4 20 -13 45 -22 54 -12 14 -12 20 -2 33 10 12 10 21 0 45 -7 17 -10 33 -7 37
4 3 11 -6 17 -21 9 -26 13 -27 71 -24 55 3 64 6 83 31 19 25 21 42 21 152 0
147 -4 153 -90 162 -55 6 -60 5 -80 -22 -22 -26 -23 -27 -51 -11 -84 45 -97
49 -184 43 -93 -5 -120 -13 -120 -32 0 -12 -24 -28 -32 -20 -1 2 -1 38 0 81
l4 77 257 -6 c305 -8 294 -12 289 94 -3 62 -4 64 -31 67 -19 2 -27 8 -23 17 2
7 -2 21 -9 32 -20 25 -9 250 12 275 10 11 34 18 72 20 31 2 59 2 63 0 4 -2 17
-24 29 -50z m3191 -180 c13 -15 16 -22 8 -16 -8 6 -36 19 -62 29 -47 17 -90
52 -109 86 -12 23 133 -65 163 -99z m14 -73 c26 -25 40 -75 29 -109 -7 -22 -7
-22 -35 6 -15 16 -31 42 -34 58 -7 27 -6 28 10 15 9 -8 25 -27 36 -44 22 -36
24 -26 3 15 -9 16 -28 36 -43 45 -15 8 -43 28 -62 45 l-35 30 54 -19 c30 -11
64 -30 77 -42z m177 -131 c18 -24 18 -29 4 -77 -13 -45 -13 -52 1 -63 8 -7 36
-13 61 -13 40 0 46 -3 49 -22 2 -14 10 -23 20 -23 15 0 15 -2 2 -11 -11 -8 -3
-9 31 -4 53 7 93 -6 109 -35 20 -38 -12 -171 -36 -147 -4 4 -2 24 5 43 12 33
11 38 -9 59 -24 26 -106 48 -163 45 -52 -3 -65 0 -42 10 17 7 16 9 -10 10
l-30 1 28 15 c15 8 27 19 27 24 0 5 -14 1 -30 -8 l-31 -17 -51 53 c-47 50 -60
82 -21 51 17 -13 17 -13 1 6 -9 11 -20 33 -24 49 l-7 29 30 -23 c34 -25 74
-20 72 8 0 11 -3 12 -6 5 -9 -24 -43 -13 -63 20 -11 17 -20 40 -20 49 0 15 4
15 42 5 23 -7 50 -24 61 -39z m-2065 -130 c-14 -27 -46 -59 -87 -87 -56 -39
-62 -41 -46 -17 15 23 144 145 153 146 2 0 -7 -19 -20 -42z m2248 -27 c64 -29
67 -45 8 -36 -27 4 -49 8 -49 8 0 1 -6 12 -13 25 -16 28 -3 29 54 3z m-2286
-90 c0 -4 -18 -29 -41 -54 -25 -29 -38 -52 -33 -59 4 -7 3 -10 -1 -5 -5 4 -14
-5 -21 -20 l-12 -28 -1 38 c-1 50 11 71 61 107 45 33 48 34 48 21z m2208 -18
c-10 -2 -26 -2 -35 0 -10 3 -2 5 17 5 19 0 27 -2 18 -5z m131 -42 c5 -9 4 -26
-2 -41 -10 -25 -10 -25 -17 10 -3 20 -9 41 -14 48 -5 8 -2 10 9 6 8 -4 19 -14
24 -23z m-51 3 c14 -9 22 -26 22 -43 0 -15 7 -36 15 -47 8 -10 15 -28 15 -38
0 -18 -2 -18 -25 4 -14 13 -25 34 -25 48 0 13 -13 36 -29 52 -39 40 -20 57 27
24z m118 -31 c-10 -26 -18 -8 -9 23 5 21 8 24 11 11 2 -10 1 -25 -2 -34z m1
-73 c14 -11 34 -20 44 -20 10 0 20 -4 23 -9 7 -11 -71 -2 -96 11 -10 4 -15 15
-12 23 8 19 11 19 41 -5z m-2557 -34 c0 -40 -25 -70 -52 -63 -12 4 -18 1 -15
-6 2 -7 18 -11 35 -11 31 2 32 0 16 -43 -8 -20 -10 -34 -12 -77 -2 -27 -4 -28
-37 -23 -45 7 -44 0 2 -20 35 -14 36 -16 18 -29 -10 -8 -30 -14 -44 -14 -45 0
-140 -32 -166 -56 -29 -27 -32 -52 -9 -80 15 -19 16 -19 9 1 -16 45 -15 52 6
70 l22 20 -7 -23 c-4 -12 -9 -41 -10 -63 -2 -22 -6 -42 -9 -46 -21 -21 -74 97
-63 141 6 24 35 40 93 51 35 7 58 28 48 45 -12 19 16 40 55 40 58 0 68 20 40
80 -20 42 -21 53 -11 78 10 24 57 59 84 61 4 1 7 -14 7 -33z m2618 -27 c22 -9
40 -35 30 -45 -3 -2 -18 2 -34 11 -16 8 -36 15 -45 15 -18 0 -69 37 -69 49 0
8 52 -6 118 -30z m108 -70 c31 -61 7 -158 -33 -133 -14 9 -17 21 -14 55 1 24
7 46 13 48 5 1 2 8 -7 15 -12 8 -14 20 -10 39 6 23 10 25 22 15 8 -6 21 -24
29 -39z m-93 -17 c26 -27 36 -62 19 -62 -8 0 -45 37 -71 73 -23 30 21 21 52
-11z m-2822 -99 c-5 -19 -18 -30 -46 -40 -44 -15 -54 -11 -34 13 14 18 69 54
81 54 3 0 3 -12 -1 -27z m98 -87 c-2 -2 -17 -6 -34 -10 -22 -5 -26 -4 -15 4
14 9 59 15 49 6z m-90 -75 c-17 -23 -21 -39 -17 -69 6 -42 -3 -67 -30 -81 -15
-8 -17 -5 -14 22 15 147 18 157 59 157 l24 0 -22 -29z m84 -42 c-29 -49 -43
-56 -43 -22 0 33 16 53 43 53 18 0 18 -1 0 -31z m-179 -55 c13 -5 14 -9 5 -20
-16 -20 -29 -17 -29 6 0 22 1 23 24 14z m12 -59 c-17 -26 -31 -31 -40 -16 -6
9 45 53 53 45 2 -2 -4 -15 -13 -29z m214 0 c0 -8 -4 -24 -9 -37 -6 -13 -13
-50 -16 -82 -5 -47 -13 -65 -35 -88 -46 -46 -60 -38 -60 35 0 70 20 114 73
159 36 31 47 34 47 13z m-1754 -37 c3 -13 12 -30 18 -38 7 -8 18 -43 24 -77
12 -58 11 -66 -13 -125 -30 -74 -27 -127 10 -156 l23 -19 1 -1046 c1 -616 -2
-1048 -8 -1051 -14 -9 -24 -96 -12 -110 18 -22 -13 -38 -74 -41 -39 -2 -63 -8
-78 -22 -30 -27 -1106 -234 -1240 -239 -49 -2 -95 -8 -103 -15 -46 -38 -32 -4
334 791 855 1861 908 1975 929 1984 13 6 37 44 61 98 l40 88 41 0 c32 0 41 -4
47 -22z m1544 -33 c-9 -10 -9 -15 -1 -15 6 0 11 -4 11 -10 0 -16 -17 -11 -24
7 -4 9 -1 20 6 25 19 12 22 10 8 -7z m-838 -1337 c-28 -120 -49 -225 -46 -233
3 -8 25 -25 47 -39 23 -13 53 -35 65 -49 l24 -25 -74 -71 c-41 -38 -83 -88
-94 -110 -10 -23 -21 -41 -24 -41 -12 0 -190 1606 -190 1705 1 17 77 -182 172
-444 l171 -475 -51 -218z m467 409 c33 -98 76 -157 136 -187 50 -25 51 -25
340 -25 160 0 332 4 382 8 l93 8 14 -33 c63 -142 97 -231 107 -278 6 -30 20
-66 31 -81 15 -20 21 -52 28 -145 8 -120 3 -254 -10 -254 -4 0 -74 20 -156 46
-321 98 -558 163 -758 209 -119 28 -210 54 -213 61 -3 7 9 41 26 76 38 77 48
147 32 230 -45 234 -86 399 -110 448 -27 54 -27 56 -12 105 l15 50 16 -85 c9
-47 26 -115 39 -153z m-794 -942 c47 -390 87 -719 88 -730 2 -19 -3 -20 -68
-16 -38 2 -75 7 -81 12 -7 6 -10 25 -7 49 4 31 2 41 -11 46 -15 6 -16 67 -15
698 1 380 3 682 5 671 2 -11 42 -339 89 -730z m351 -516 c16 -15 121 -79 233
-144 251 -144 241 -137 241 -152 0 -19 -16 -16 -59 12 -76 47 -150 65 -275 65
-100 0 -115 2 -120 18 -3 9 -16 30 -29 46 -20 25 -26 27 -45 17 -24 -13 -24
-15 -42 151 -14 137 -14 137 29 72 21 -32 51 -71 67 -85z"/>
<path d="M8678 5503 c6 -2 18 -2 25 0 6 3 1 5 -13 5 -14 0 -19 -2 -12 -5z"/>
<path d="M8818 5403 c6 -2 18 -2 25 0 6 3 1 5 -13 5 -14 0 -19 -2 -12 -5z"/>
<path d="M6388 4923 c6 -2 18 -2 25 0 6 3 1 5 -13 5 -14 0 -19 -2 -12 -5z"/>
<path d="M9252 5050 c0 -14 2 -19 5 -12 2 6 2 18 0 25 -3 6 -5 1 -5 -13z"/>
<path d="M9366 4715 c-9 -26 -7 -32 5 -12 6 10 9 21 6 23 -2 3 -7 -2 -11 -11z"/>
</g>
</svg>
